<svg id="a1a5e88f-156a-43ec-ae42-28381d378084" data-name="Warstwa 1" xmlns="http://www.w3.org/2000/svg" width="760.55" height="517.72" viewBox="0 0 760.55 517.72"><defs><style>.e2405975-99db-4ab9-8557-201fb8b94ab8{fill:#fff;}.f5d4c08b-4731-4197-b9cc-3f5c497df17d{fill:none;stroke:#c9007d;stroke-miterlimit:10;stroke-width:10px;}</style></defs><path class="e2405975-99db-4ab9-8557-201fb8b94ab8" d="M1270.81,540.91c-2.3,47.17-39.32,81.65-66.84,116.46,9.16,53,49-12.68,9.26,111.66-3.72,23.65-13.69,46.82-41.93,34.51-15.66-1.78-40.31,16-53.54,1.66,5.45-7.81,21.9-8.32,30.75-13.35,20.4-10.21-36.86-.58-44.6-8.06-13.08-8.89,8.9-28.44,21.75-21.2,25.2,7.91,53.39-24.05,29.27-43.19-44.18-11-70.22-69.16-119.07-45-41.24,11.66-87,2.17-125-15.74-5.22-3-7.78-1.72-8.33,4.15C880.55,781,984.07,771.34,883.18,780c-10.95,1.8-66.2,3.55-28.34-10.19,30.52,6.7-4.5-151.09-36.84-109.5C786.16,679.91,758.6,815,736,800.34c-19.9-.22-113,11.52-44.48-12.34,52.86-5.31,44.88-75.19,48.76-114,.6-77.57-64.29-134.45-85.39-206.79-14.07-30.63-55.09-8.35-81.12-13.29-11.89-3.84-9.08-22.75-26.46-17.66C520.1,426,511.45,369.55,530.55,349c55.52-28.29,123.89-16.37,176.82-44.8,7.07-3.1,13.75.87,14.3,8.54.69,9.5,4.13,17.2,12.2,23.25,33,21.16,52.68,56.64,85,78.24,104.29,19.7,217.49-31.83,322.23,2C1193.65,438.16,1262.51,480.19,1270.81,540.91Z" transform="translate(-515.28 -298.11)"/><path class="f5d4c08b-4731-4197-b9cc-3f5c497df17d" d="M1270.81,540.91c-2.3,47.17-39.32,81.65-66.84,116.46,9.16,53,49-12.68,9.26,111.66-3.72,23.65-13.69,46.82-41.93,34.51-15.66-1.78-40.31,16-53.54,1.66,5.45-7.81,21.9-8.32,30.75-13.35,20.4-10.21-36.86-.58-44.6-8.06-13.08-8.89,8.9-28.44,21.75-21.2,25.2,7.91,53.39-24.05,29.27-43.19-44.18-11-70.22-69.16-119.07-45-41.24,11.66-87,2.17-125-15.74-5.22-3-7.78-1.72-8.33,4.15C880.55,781,984.07,771.34,883.18,780c-10.95,1.8-66.2,3.55-28.34-10.19,30.52,6.7-4.5-151.09-36.84-109.5C786.16,679.91,758.6,815,736,800.34c-19.9-.22-113,11.52-44.48-12.34,52.86-5.31,44.88-75.19,48.76-114,.6-77.57-64.29-134.45-85.39-206.79-14.07-30.63-55.09-8.35-81.12-13.29-11.89-3.84-9.08-22.75-26.46-17.66C520.1,426,511.45,369.55,530.55,349c55.52-28.29,123.89-16.37,176.82-44.8,7.07-3.1,13.75.87,14.3,8.54.69,9.5,4.13,17.2,12.2,23.25,33,21.16,52.68,56.64,85,78.24,104.29,19.7,217.49-31.83,322.23,2C1193.65,438.16,1262.51,480.19,1270.81,540.91Z" transform="translate(-515.28 -298.11)"/></svg>